<?xml version="1.0" encoding="utf-8"?>
<!-- Generator: Adobe Illustrator 22.0.0, SVG Export Plug-In . SVG Version: 6.00 Build 0)  -->
<svg version="1.1" id="Layer_1" xmlns="http://www.w3.org/2000/svg" xmlns:xlink="http://www.w3.org/1999/xlink" x="0px" y="0px"
	 viewBox="0 0 517.9 100" style="enable-background:new 0 0 517.9 100;" xml:space="preserve">
<style type="text/css">
	.st0{fill:#FFFFFF;}
</style>
<g>
	<path class="st0" d="M500.3,20.4l1.2,1.6l13.8-19.8h-2.2L500.3,20.4z M499.6,24.1l-1.2-1.6l-16,22.9h2.2L499.6,24.1z M497.1,23.8
		l0.5,0.8l14.7,20.8h5.6L487,2.2h-5.4L497.1,23.8z M222.3,45.8c9.8,0,14.2-5.8,14.2-11.4c0-6.8-5.4-10.4-10.8-13.6l-2-1.2
		c-5-3-9-5.6-9-9.6c0-4.3,4.6-6.7,9-6.7c4.2,0,8.3,1.6,10.2,3.3V3.4c0,0-4-1.8-10.2-1.8c-6.2,0-12.4,3.4-12.4,10c0,5.6,5,8.8,9.8,12
		c0.6,0.4,1.2,0.8,1.8,1.2c5.9,3.9,9.6,6.8,9.6,11.4c0,4.5-4.4,7.9-10.2,7.9c-6.8,0-10.8-4.4-12.2-5.7v3.4
		C210.5,42.2,215.1,45.8,222.3,45.8z M359.5,89.2h6.8c3.1-0.7,5.1-3,5.1-5.9c0-3.4-2.5-5.5-6.5-5.5h-6.4l1.4,1.6h4.8
		c2.9,0,4.8,1.6,4.8,3.8c0,2.5-2.1,4.4-4.8,4.4h-5.3L359.5,89.2z M372.2,99.4h2.2l-9.1-11.1h-2.2L372.2,99.4z M410.6,99.4h2.4
		l-11.8-11.8l0,1.4l11.2-11.2h-2.4l-10.5,10.5L410.6,99.4z M142,99.8v-22h-1.9V96l0.5-0.2l-17.9-18.4v22h1.8V81l-0.6,0.2L142,99.8z
		 M220.4,81.3l-7.7,18.7l-8-22.1h1.9l6.2,17.4l7.2-17.8L220.4,81.3z M322.4,98.4c-5.3,0-9.6-4.4-9.6-9.8c0-5.4,4.3-9.8,9.6-9.8
		c5.3,0,9.6,4.4,9.6,9.8C332,94,327.7,98.4,322.4,98.4z M281.7,92l9.2-14.1h-2.2L281.6,89L281.7,92z M418.2,45.4h24.2v-1.8h-19.6
		V24.2h19.6v-1.8h-19.6V4h19.6V2.2h-24.2V45.4z M357.6,45.4h4.6V4h13.6V2.2h-31.6V4h13.4V45.4z M397.7,99.4h1.9V77.8h-1.9V99.4z
		 M358.2,99.4h1.9V77.8h-1.9V99.4z M280.5,31.4H303l-0.8-1.8h-20.8L280.5,31.4z M322.4,100c6.3,0,11.4-5.1,11.4-11.4
		c0-6.3-5.1-11.4-11.4-11.4s-11.4,5.1-11.4,11.4C311.1,94.9,316.1,100,322.4,100z M282.6,92l0.1-3l-7.2-11.1h-2.2L282.6,92z
		 M281.2,99.4h1.9V88.8h-1.9V99.4z M219.6,81.3l0.4-3.8l7.2,17.8l6.2-17.4h1.9l-8,22.1L219.6,81.3z M153.5,45.8
		c9.8,0,14.2-5.8,14.2-11.4c0-6.8-5.4-10.4-10.8-13.6l-2-1.2c-5-3-9-5.6-9-9.6c0-4.3,4.6-6.7,9-6.7c4.2,0,8.3,1.6,10.2,3.3V3.4
		c0,0-4-1.8-10.2-1.8c-6.2,0-12.4,3.4-12.4,10c0,5.6,5,8.8,9.8,12c0.6,0.4,1.2,0.8,1.8,1.2c5.9,3.9,9.6,6.8,9.6,11.4
		c0,4.5-4.4,7.9-10.2,7.9c-6.8,0-10.8-4.4-12.2-5.7v3.4C141.7,42.2,146.3,45.8,153.5,45.8z M168.1,99.4h13.8v-1.6H170v-8.7h11.7
		v-1.6H170v-8.2h11.9v-1.6h-13.8V99.4z M65.2,45.4h2l15.2-37l15.2,37h5L83.8,0L65.2,45.4z M72,31.4h22.4l-0.8-1.8H72.8L72,31.4z
		 M25.4,45.4h6.1l-23-23.4l-0.3,1.5L29.7,2.2H27L4.6,24.6L25.4,45.4z M0,45.4h4.6V2.2H0V45.4z M273.7,45.4h2l15.2-37l15.2,37h5
		L292.5,0L273.7,45.4z"/>
</g>
</svg>
