<?xml version="1.0" encoding="utf-8"?>
<!-- Generator: Adobe Illustrator 22.0.0, SVG Export Plug-In . SVG Version: 6.00 Build 0)  -->
<svg version="1.1" id="Layer_1" xmlns="http://www.w3.org/2000/svg" xmlns:xlink="http://www.w3.org/1999/xlink" x="0px" y="0px"
	 viewBox="0 0 72 72" style="enable-background:new 0 0 72 72;" xml:space="preserve">
<style type="text/css">
	.st0{fill:#646565;}
</style>
<path class="st0" d="M39.6,50c-9.7,0-16.8-7.9-17.3-17.3c-0.1-3.2,0.8-6.3,2.5-8.9c-6.1,2.6-10.4,8.7-10.4,15.8
	c0,9.5,7.7,17.1,17.1,17.1c6.1,0,11.5-3.2,14.5-8.1C44.1,49.5,41.9,50,39.6,50z"/>
<polygon class="st0" points="41.4,24.4 42,25.5 43.3,25.7 42.3,26.6 42.6,27.9 41.4,27.3 40.2,27.9 40.5,26.6 39.5,25.7 40.8,25.5 
	"/>
<polygon class="st0" points="33.7,29.6 34.1,30.5 35.1,30.7 34.4,31.4 34.6,32.4 33.7,31.9 32.8,32.4 32.9,31.4 32.2,30.7 
	33.2,30.5 "/>
<polygon class="st0" points="40.3,37 40.6,37.6 41.3,37.7 40.8,38.1 40.9,38.8 40.3,38.5 39.8,38.8 39.9,38.1 39.4,37.7 40,37.6 "/>
</svg>
