<svg width="42" height="42" viewBox="0 0 42 42" fill="none" xmlns="http://www.w3.org/2000/svg">
<path d="M35.1806 5.46216L32.7806 8.07816L25.9166 15.9742V19.3342H40.7166V15.4102L34.3886 15.4422C33.4872 15.4422 32.7619 15.4648 32.2126 15.5102C32.7459 14.9768 33.5619 14.0822 34.6606 12.8262L41.3926 5.10616V1.41016H25.3926V5.57816H32.7326C33.0499 5.57816 33.8659 5.53949 35.1806 5.46216Z" fill="#8D8B8E"/>
<path d="M18.3326 22.9262L16.5246 24.8902L11.3926 30.8142V33.3342H22.5006V30.3822L17.7526 30.4062C17.0779 30.4062 16.5339 30.4235 16.1206 30.4582C16.5179 30.0608 17.1299 29.3942 17.9566 28.4582L22.9926 22.6622V19.8902H10.9926V23.0102H16.5006C16.7353 23.0102 17.3459 22.9822 18.3326 22.9262Z" fill="#8D8B8E"/>
<path d="M3.79258 36.9382C3.89391 36.9382 4.16058 36.9248 4.59258 36.8982L3.79258 37.7502L1.56458 40.3182V41.4102H6.36458V40.1302H4.30858C4.01524 40.1302 3.77924 40.1368 3.60058 40.1502C3.77124 39.9795 4.03791 39.6888 4.40058 39.2782L6.59258 36.7862V35.5862H1.39258V36.9422L3.79258 36.9382Z" fill="#8D8B8E"/>
</svg>
